<svg width="360" height="292" viewBox="0 0 360 292" fill="none" xmlns="http://www.w3.org/2000/svg">
<mask id="mask0" mask-type="alpha" maskUnits="userSpaceOnUse" x="16" y="18" width="344" height="274">
<path d="M16 24C16 20.6863 18.6863 18 22 18H354C357.314 18 360 20.6863 360 24V286C360 289.314 357.314 292 354 292H216.787H188H158.494H22C18.6863 292 16 289.314 16 286V24Z" fill="white"/>
</mask>
<g mask="url(#mask0)">
<path fill-rule="evenodd" clip-rule="evenodd" d="M359.781 -81H14.3775V280C22.0208 274.867 37.7078 272.881 53.4134 270.893C65.5139 269.361 77.6253 267.828 86.0774 264.853C98.7225 260.386 117.524 259.878 136.206 259.374C148.222 259.05 160.187 258.727 170.434 257.353C192.647 254.327 210.844 255.214 233.814 256.334C237.486 256.513 241.281 256.698 245.233 256.874C258.086 257.455 277.301 253.117 296.621 248.755C319.777 243.527 343.084 238.265 355.77 241.396C357.267 241.766 358.598 242.193 359.781 242.672V-81Z" fill="#12E068"/>
<path d="M-18.7812 124.225C-12.6407 101.812 24.5094 21.5246 54.9049 55.144C91.928 96.0938 -68.9266 212.013 28.1937 219.732C97.735 225.258 62.2735 167.055 107.406 149.554C152.539 132.054 164.053 149.554 193.987 134.532" stroke="#0BAE4F" stroke-width="4" stroke-linecap="round" stroke-dasharray="20 20"/>
<path d="M229.03 119.667L210.593 128.383L223.331 115.98L229.03 119.667Z" fill="#044E23"/>
<path d="M205.9 110.281L210.593 128.383L223.331 115.98L324.571 73.741L205.9 110.281Z" fill="#0BAE4F"/>
<path d="M249.144 132.406L222.996 115.645L324.32 73.741L249.144 132.406Z" fill="#8FFFBE"/>
<path d="M205.899 110.281L181.092 102.906L324.32 73.741L205.899 110.281Z" fill="#8FFFBE"/>
</g>
</svg>
