<svg width="307" height="128" viewBox="0 0 307 128" fill="none" xmlns="http://www.w3.org/2000/svg">
<circle cx="52.9231" cy="75.0769" r="52.9231" fill="#0BAE4F"/>
<circle cx="253.949" cy="75.0769" r="52.9231" fill="#0BAE4F"/>
<circle cx="79.5898" cy="37.7436" r="37.7436" fill="white"/>
<path d="M117.333 37.7436C117.333 58.5888 100.435 75.4872 79.5897 75.4872C58.7445 75.4872 61.9487 58.5888 61.9487 37.7436C61.9487 16.8984 58.7445 0 79.5897 0C100.435 0 117.333 16.8984 117.333 37.7436Z" fill="#1D1D1D"/>
<circle cx="220.718" cy="37.7436" r="37.7436" fill="white"/>
<path d="M258.462 37.7436C258.462 58.5888 241.563 75.4872 220.718 75.4872C199.873 75.4872 203.077 58.5888 203.077 37.7436C203.077 16.8984 199.873 0 220.718 0C241.563 0 258.462 16.8984 258.462 37.7436Z" fill="#1D1D1D"/>
<path d="M178.051 95.5897C178.051 107.825 168.133 98.4615 155.897 98.4615C143.662 98.4615 133.744 107.825 133.744 95.5897C133.744 83.3545 143.662 76.3077 155.897 76.3077C168.133 76.3077 178.051 83.3545 178.051 95.5897Z" fill="#07652E"/>
<path d="M101.376 14.7613C104.775 20.648 102.776 28.1651 96.9108 31.5513C91.0458 34.9375 89.1921 29.6449 85.7934 23.7582C82.3948 17.8715 78.7381 13.6199 84.6031 10.2338C90.4681 6.84759 97.9778 8.87466 101.376 14.7613Z" fill="white"/>
<path d="M240.043 14.7613C243.442 20.648 241.442 28.1651 235.577 31.5513C229.712 34.9375 227.859 29.6449 224.46 23.7582C221.061 17.8715 217.405 13.6199 223.27 10.2338C229.135 6.84759 236.644 8.87466 240.043 14.7613Z" fill="white"/>
</svg>
