<svg width="24" height="12" viewBox="0 0 24 12" fill="none" xmlns="http://www.w3.org/2000/svg">
<path opacity="0.35" d="M1.14247 2.99477C1.14247 1.7952 2.11491 0.822765 3.31447 0.822765H18.3394C19.539 0.822765 20.5114 1.7952 20.5114 2.99477V8.57994C20.5114 9.7795 19.539 10.7519 18.3394 10.7519H3.31447C2.1149 10.7519 1.14247 9.7795 1.14247 8.57994V2.99477Z" stroke="#A1A1A1" stroke-width="1.00246"/>
<path opacity="0.4" d="M21.9386 3.85815V7.71638C22.6838 7.38961 23.1683 6.62946 23.1683 5.78727C23.1683 4.94508 22.6838 4.18492 21.9386 3.85815Z" fill="#131315"/>
<path d="M2.49316 3.58711C2.49316 2.84891 3.09159 2.25049 3.82978 2.25049H17.8241C18.5623 2.25049 19.1607 2.84891 19.1607 3.58711V7.98728C19.1607 8.72548 18.5623 9.3239 17.8241 9.3239H3.82978C3.09159 9.3239 2.49316 8.72548 2.49316 7.98728V3.58711Z" fill="#131315"/>
</svg>
