<svg width="81" height="222" viewBox="0 0 81 222" fill="none" xmlns="http://www.w3.org/2000/svg">
<path d="M17.6127 38.1894C17.8627 37.4394 21.9627 37.7894 25.5627 39.5394C27.0127 40.2894 29.2127 41.3394 30.4627 43.3894C34.4627 49.8394 26.6627 61.9394 25.6127 61.5894C25.4127 61.5394 25.2627 61.3394 25.5127 59.7394C26.1127 56.0894 26.5127 55.1894 26.9127 52.1394C27.0127 51.2894 27.1627 49.8394 26.3127 49.3394C25.4127 48.8394 24.2127 49.6894 22.6627 50.5894C19.7127 52.2894 14.2627 55.0394 13.3627 54.0394C13.0127 53.6394 13.3127 52.6894 13.6127 52.3394C14.9127 50.6894 16.5127 49.6394 20.9627 47.5394C24.8127 45.7394 25.5127 45.2394 25.5127 44.5894C25.5127 43.8394 24.5127 43.4394 21.7627 41.5394C18.8627 39.6394 17.4127 38.6394 17.6127 38.1894Z" fill="white"/>
<path d="M33.4127 41.6394C32.8127 41.9894 32.6127 42.5394 32.5127 42.8394C32.4127 43.0894 32.2627 43.6394 32.4627 44.2394C32.5127 44.3894 32.8127 45.0894 33.5627 45.3394C34.2627 45.5894 34.8627 45.2394 35.0627 45.1394C35.2127 45.0394 35.7627 44.7394 36.0127 44.0894C36.0627 43.9894 36.3127 43.2894 35.9627 42.5394C35.8627 42.3394 35.5127 41.6894 34.7627 41.4894C34.7127 41.4394 34.0627 41.2394 33.4127 41.6394Z" fill="white"/>
<path d="M0.0127971 108.889C-0.237203 108.139 3.2128 105.889 7.1128 105.139C8.7128 104.839 11.1128 104.339 13.3128 105.189C20.4128 107.839 21.6128 122.189 20.6128 122.589C20.4128 122.639 20.1628 122.589 19.4128 121.189C17.6628 117.889 17.4628 116.989 15.9128 114.339C15.4628 113.589 14.7128 112.339 13.7628 112.489C12.7628 112.639 12.3128 114.039 11.6128 115.689C10.3128 118.839 7.6628 124.339 6.3128 124.089C5.8128 123.989 5.4628 123.039 5.4628 122.639C5.5128 120.539 6.1128 118.739 8.3628 114.339C10.3128 110.589 10.5628 109.739 10.1628 109.239C9.7128 108.639 8.6628 108.939 5.3128 109.139C1.9128 109.289 0.162797 109.389 0.0127971 108.889Z" fill="white"/>
<path d="M14.6628 101.989C14.4128 102.639 14.6128 103.189 14.7128 103.489C14.8128 103.739 14.9628 104.289 15.5628 104.639C15.7128 104.739 16.3628 105.089 17.1129 104.839C17.8129 104.589 18.1129 103.939 18.1629 103.739C18.2129 103.589 18.4629 102.989 18.2629 102.289C18.2129 102.189 18.0129 101.489 17.3129 101.089C17.1129 100.989 16.4628 100.689 15.7128 100.939C15.5628 101.039 14.9128 101.289 14.6628 101.989Z" fill="white"/>
<path d="M1.46296 167.239C0.912956 166.739 2.76296 163.039 5.76296 160.439C7.01296 159.389 8.81296 157.789 11.163 157.389C18.663 156.139 26.863 167.989 26.163 168.789C26.013 168.939 25.763 169.039 24.413 168.189C21.263 166.239 20.613 165.539 17.963 163.989C17.213 163.589 15.913 162.839 15.163 163.439C14.363 164.039 14.663 165.489 14.913 167.289C15.363 170.689 15.813 176.739 14.513 177.189C14.013 177.389 13.263 176.739 13.063 176.339C12.013 174.489 11.663 172.639 11.413 167.689C11.213 163.439 11.013 162.589 10.463 162.339C9.76296 162.039 9.01296 162.839 6.21296 164.689C3.26296 166.639 1.81296 167.589 1.46296 167.239Z" fill="white"/>
<path d="M10.663 153.989C10.763 154.689 11.213 155.039 11.413 155.239C11.613 155.389 12.063 155.789 12.713 155.789C12.913 155.789 13.663 155.789 14.163 155.189C14.663 154.639 14.563 153.939 14.563 153.739C14.563 153.539 14.463 152.939 13.963 152.439C13.863 152.339 13.363 151.889 12.513 151.889C12.263 151.889 11.563 151.939 11.063 152.589C11.013 152.689 10.563 153.239 10.663 153.989Z" fill="white"/>
<path d="M52.5128 216.139C51.7628 215.889 52.1128 211.789 53.9128 208.239C54.6628 206.789 55.7628 204.589 57.7628 203.339C64.2128 199.339 76.3128 207.239 75.9628 208.289C75.9128 208.489 75.6628 208.639 74.1128 208.389C70.4628 207.739 69.5628 207.339 66.5128 206.939C65.6628 206.839 64.2128 206.639 63.7128 207.489C63.2128 208.339 64.0628 209.589 64.9128 211.139C66.6128 214.089 69.3128 219.589 68.3128 220.439C67.9128 220.789 66.9628 220.489 66.6128 220.189C64.9628 218.889 63.9128 217.289 61.8628 212.789C60.0628 208.939 59.6128 208.239 58.9628 208.239C58.2128 208.239 57.8128 209.239 55.9128 211.989C53.9628 214.839 53.0128 216.289 52.5128 216.139Z" fill="white"/>
<path d="M56.0628 200.339C56.4128 200.939 56.9628 201.139 57.2628 201.239C57.5128 201.339 58.0628 201.489 58.6628 201.289C58.8128 201.239 59.5128 200.939 59.7628 200.189C60.0128 199.489 59.6628 198.889 59.5628 198.689C59.4628 198.539 59.1628 197.989 58.5128 197.739C58.4128 197.689 57.7128 197.439 56.9628 197.789C56.7628 197.889 56.1128 198.189 55.8628 198.989C55.8628 199.039 55.7128 199.689 56.0628 200.339Z" fill="white"/>
<path d="M64.5628 7.53933C64.8628 6.83933 68.9128 7.33933 72.4128 9.28933C73.8128 10.0893 75.9628 11.2893 77.1128 13.3393C80.8628 19.9393 72.5128 31.6893 71.4628 31.3393C71.2628 31.2393 71.1128 31.0393 71.4628 29.4893C72.2628 25.8393 72.6628 24.9893 73.2128 21.9893C73.3628 21.1393 73.5628 19.6893 72.7628 19.1893C71.9128 18.6393 70.6628 19.4393 69.0628 20.2393C66.0128 21.8393 60.4628 24.2893 59.6128 23.2393C59.2628 22.8393 59.6128 21.8893 59.9128 21.5893C61.3128 19.9893 62.9128 19.0393 67.5128 17.0893C71.4128 15.4393 72.1628 14.9893 72.2128 14.3393C72.2628 13.5893 71.2628 13.1393 68.5628 11.1393C65.7628 9.08933 64.3628 8.03933 64.5628 7.53933Z" fill="white"/>
<path d="M80.1628 11.7394C79.5628 12.0394 79.3128 12.6394 79.2128 12.8894C79.1128 13.1394 78.9128 13.6894 79.1128 14.2894C79.1628 14.4394 79.4128 15.1894 80.1628 15.4394C80.8628 15.6894 81.4628 15.3894 81.6628 15.2894C81.8128 15.1894 82.3628 14.9394 82.6628 14.2894C82.7128 14.1894 83.0128 13.4894 82.7128 12.7394C82.6128 12.5394 82.3128 11.8894 81.5628 11.5894C81.4628 11.5894 80.8128 11.3894 80.1628 11.7394Z" fill="white"/>
<path d="M19.5629 76.7894C18.2629 75.4394 22.8629 73.5394 26.8129 71.6394C28.2629 70.9394 31.4129 68.0894 33.7129 68.5894C41.1629 70.1394 44.5629 83.6894 43.7129 84.3394C43.0129 84.8394 42.0629 83.3394 41.1129 82.0394C38.9129 79.0394 39.5629 79.6394 37.6629 77.2394C37.1129 76.5894 36.1129 75.3394 35.2129 75.7394C34.0629 76.2894 33.6129 78.0894 33.1629 79.3394C31.9129 82.5394 30.0129 88.3894 28.6629 88.2394C27.5629 88.0894 27.5629 87.4894 27.5629 87.3394C27.3129 85.2394 28.6129 83.0894 30.2129 78.3894C31.5629 74.3894 31.5629 74.6394 31.0629 74.1894C30.5129 73.6394 29.5129 74.1894 26.2129 74.8894C22.8129 75.5394 20.2629 77.5894 19.5629 76.7894Z" fill="white"/>
<path d="M34.6129 65.2894C34.4629 65.8894 34.3129 66.3894 34.5629 66.7894C34.8129 67.2394 35.3629 67.2894 35.6629 67.3894C35.8629 67.4394 36.6629 67.5894 37.2629 67.0894C37.5129 66.8894 37.6629 66.5894 37.7629 66.3394C37.9129 65.9894 38.1129 65.5394 37.9629 65.0894C37.7629 64.2894 36.8629 64.0394 36.7629 63.9894C36.7129 63.9894 35.7629 63.7394 35.1129 64.3394C34.8629 64.5394 34.7629 64.8394 34.6129 65.2894Z" fill="white"/>
<path d="M20.9628 136.19C19.2128 135.54 22.5128 131.84 25.2128 128.39C26.2128 127.14 27.8128 123.19 30.1128 122.64C37.4628 120.79 46.5128 131.49 45.9628 132.44C45.5128 133.19 44.0628 132.24 42.6128 131.54C39.3128 129.84 40.1628 130.04 37.4128 128.74C36.6628 128.39 35.1628 127.69 34.5628 128.44C33.7628 129.44 34.1628 131.24 34.2628 132.54C34.5128 135.94 35.4128 142.09 34.1128 142.49C33.0628 142.84 32.8128 142.29 32.7128 142.14C31.5628 140.34 31.8128 137.84 31.1628 132.94C30.6128 128.74 30.7128 128.99 30.1128 128.79C29.3628 128.54 28.7128 129.49 26.0628 131.54C23.3128 133.64 21.9628 136.54 20.9628 136.19Z" fill="white"/>
<path d="M29.5129 119.239C29.6129 119.839 29.7129 120.339 30.1129 120.639C30.5129 120.889 31.0629 120.739 31.3629 120.689C31.5629 120.639 32.3629 120.389 32.6629 119.689C32.8129 119.389 32.8129 119.089 32.7629 118.789C32.7629 118.439 32.7129 117.939 32.4129 117.539C31.8629 116.939 30.9629 117.089 30.8629 117.089C30.8129 117.089 29.8129 117.289 29.5129 118.089C29.3629 118.489 29.4129 118.789 29.5129 119.239Z" fill="white"/>
<path d="M31.0627 180.689C29.1627 180.639 31.0627 176.089 32.5127 171.889C33.0127 170.339 33.2627 166.139 35.2127 164.839C41.5627 160.639 53.6127 167.789 53.4127 168.839C53.2627 169.689 51.5127 169.289 49.9627 169.089C46.3127 168.539 47.1627 168.489 44.1127 168.139C43.2627 168.039 41.6627 167.889 41.3127 168.789C40.9127 169.989 41.8627 171.539 42.3627 172.789C43.7127 175.939 46.5627 181.439 45.5127 182.239C44.6127 182.939 44.2127 182.439 44.1127 182.389C42.4627 181.089 41.8627 178.639 39.6127 174.189C37.7127 170.389 37.8627 170.589 37.2127 170.589C36.4627 170.589 36.1127 171.689 34.2627 174.539C32.4627 177.489 32.1127 180.739 31.0627 180.689Z" fill="white"/>
<path d="M33.5627 161.889C33.8627 162.439 34.1127 162.889 34.5627 162.989C35.0627 163.089 35.5127 162.789 35.7627 162.589C35.9627 162.489 36.6127 161.989 36.6627 161.239C36.7127 160.889 36.5627 160.639 36.4627 160.389C36.3127 160.039 36.1627 159.589 35.7127 159.339C35.0127 158.939 34.1627 159.389 34.1127 159.439C34.0627 159.439 33.2127 159.989 33.1627 160.839C33.1627 161.189 33.3127 161.489 33.5627 161.889Z" fill="white"/>
<path d="M81.1128 203.89C81.6128 204.24 82.0628 204.54 82.5128 204.44C83.0128 204.34 83.2628 203.84 83.4128 203.54C83.5127 203.34 83.9127 202.64 83.6127 201.94C83.4627 201.64 83.2628 201.44 83.0628 201.24C82.7628 200.99 82.4128 200.69 81.9128 200.64C81.1128 200.59 80.5628 201.39 80.5128 201.44C80.5128 201.49 79.9128 202.34 80.3128 203.14C80.4628 203.49 80.7128 203.64 81.1128 203.89Z" fill="white"/>
<path d="M57.8128 36.3894C57.5128 34.5394 62.3628 35.5394 66.7128 36.1394C68.3128 36.3894 72.4628 35.7894 74.1628 37.4894C79.4628 42.9394 74.7128 56.0894 73.6128 56.0894C72.7128 56.0894 72.8128 54.3394 72.7628 52.7394C72.6128 49.0394 72.8628 49.8894 72.5628 46.7894C72.5128 45.9394 72.3628 44.3394 71.4128 44.1894C70.1628 43.9894 68.8128 45.2394 67.7128 45.9894C64.8628 47.9394 60.0128 51.7394 59.0128 50.8394C58.1628 50.0894 58.5628 49.5894 58.6128 49.4894C59.5628 47.5894 61.8628 46.5894 65.8128 43.5394C69.1628 40.9894 69.0128 41.1394 68.9128 40.5394C68.7628 39.7894 67.6128 39.6894 64.5128 38.3894C61.2128 37.1394 57.9628 37.4394 57.8128 36.3894Z" fill="white"/>
<path d="M76.7628 35.2894C76.3128 35.6894 75.9128 35.9894 75.8628 36.4894C75.8628 36.9894 76.2128 37.3394 76.4628 37.5894C76.6128 37.7394 77.2128 38.2894 77.9628 38.1894C78.3128 38.1394 78.5628 37.9894 78.7628 37.8394C79.0628 37.6394 79.4628 37.3894 79.6628 36.9394C79.9128 36.1894 79.3128 35.4394 79.2628 35.3894C79.2128 35.3394 78.5628 34.5894 77.7128 34.7394C77.3628 34.7894 77.1128 34.9894 76.7628 35.2894Z" fill="white"/>
</svg>
