<svg width="102" height="100" viewBox="0 0 102 100" fill="none" xmlns="http://www.w3.org/2000/svg">
<path d="M49.1956 45.2719C46.4456 44.9219 44.5456 41.3219 42.5456 39.5719C40.5456 37.8719 37.2456 36.4719 36.3456 33.8719C35.4956 31.4219 35.1456 28.0219 35.4456 25.2219C35.7956 22.4219 37.1456 19.3219 38.5456 17.1719C40.0456 14.8719 43.3456 14.0219 45.6456 12.8219C47.9956 11.5719 50.6956 9.17193 53.4456 9.47193C56.1956 9.82193 57.4956 13.6719 59.4956 15.4219C61.4956 17.1219 63.5956 18.4219 64.5456 21.0219C65.3956 23.4719 68.1456 26.2719 67.7956 29.0719C67.4456 31.8719 62.9456 33.1719 61.5456 35.3219C60.0456 37.6219 60.3956 42.1719 58.0956 43.3719C55.6956 44.5719 51.9456 45.5719 49.1956 45.2719Z" fill="#EDCE1E"/>
<path d="M37.5956 53.5219C38.2457 56.2219 32.5957 59.5719 31.6457 62.0719C30.6957 64.5219 32.1957 69.6719 30.0457 71.4219C28.0457 73.0719 24.2457 74.8719 21.5457 75.5219C18.7957 76.1719 14.7456 75.7219 12.1956 75.1719C9.49565 74.5719 8.19565 70.0219 6.24565 68.2719C4.29565 66.4719 -0.954347 65.4719 -1.60435 62.7719C-2.25435 60.0719 4.34565 57.7719 5.29565 55.2719C6.24565 52.8219 5.39565 50.1219 7.49565 48.3719C9.49565 46.7219 10.3456 40.6219 13.0956 39.9719C15.8456 39.3219 18.6456 47.3719 21.1956 47.9219C23.8956 48.5219 29.8956 43.0219 31.8456 44.8219C33.8456 46.6219 36.9456 50.8219 37.5956 53.5219Z" fill="#EDCE1E"/>
<path d="M73.5956 98.9219C70.1956 98.5219 68.1456 94.0219 65.3956 92.2219C62.5956 90.4219 53.1956 93.5219 51.3456 90.6719C49.5456 87.9719 51.1956 81.4719 50.4456 78.1219C49.7456 74.9719 47.8956 70.3219 48.2956 66.9219C48.6956 63.4719 55.4956 61.3219 56.8956 58.4219C58.3956 55.3219 58.3456 50.9719 60.7456 48.7719C63.2456 46.4719 67.7456 47.5219 70.8956 46.4219C73.9956 45.3219 76.4456 45.8719 79.8956 46.2719C83.2956 46.6719 90.3956 39.6219 93.1956 41.4219C95.9956 43.2219 92.7456 52.5719 94.6456 55.3719C96.4456 58.0719 101.146 59.5719 101.896 62.9219C102.596 66.0719 96.0956 69.1219 95.6956 72.5719C95.2956 76.0219 100.246 80.1719 98.7956 83.0719C97.2956 86.1719 98.2456 92.4219 95.8456 94.6719C93.3456 96.9719 87.6456 97.0719 84.5456 98.1719C81.3456 99.2219 76.9956 99.3219 73.5956 98.9219Z" fill="#EDCE1E"/>
</svg>
