<svg width="139" height="45" viewBox="0 0 137 45" fill="none" xmlns="http://www.w3.org/2000/svg">
<path d="M19.9031 13.0038C18.5175 0.997436 -0.00012207 3.53304 -0.00012207 3.53304V34.7394H9.29691V27.0554C9.29691 27.0554 21.4847 26.7464 19.9031 13.0038ZM8.99787 19.0254L8.42303 11.516C8.42303 11.516 12.4934 10.8913 12.8057 14.9516C13.1147 19.012 8.99787 19.0254 8.99787 19.0254Z" fill="white"/>
<path d="M38.4538 25.2081C38.4538 25.2081 31.9545 32.3146 29.1767 24.1335L40.4308 22.1889C40.4308 22.1889 40.278 9.68555 30.5457 9.68555C20.8134 9.68555 20.8134 21.2116 20.8134 21.2116C20.8134 21.2116 20.3283 34.6117 30.137 35.1759C40.082 35.7469 42.1055 29.9737 42.1055 29.9737L38.4538 25.2081ZM31.3498 15.6635C34.2339 15.462 33.8452 18.7331 33.8452 18.7331L28.685 19.0925C28.685 19.0925 28.4657 15.8617 31.3498 15.6635Z" fill="white"/>
<path d="M57.4369 19.4822C58.5334 17.7056 59.6332 15.9323 60.7297 14.1557C60.3144 13.2389 57.2176 9.94763 53.6423 9.94763C50.4292 9.94763 48.2196 11.516 47.7378 11.8552C44.641 14.0315 43.5943 17.2085 43.1258 18.693C42.7238 19.9691 40.6537 27.1562 45.1627 32.0695C45.7143 32.6707 48.4356 35.2667 52.7851 34.9746C56.4102 34.7294 59.8426 32.7379 61.391 28.9831C59.9356 27.2871 58.4769 25.5945 57.0216 23.8985C56.3836 25.1915 55.0645 25.9572 53.7287 25.8363C51.6321 25.6449 50.8878 23.3947 50.8545 23.294C50.2731 21.4401 51.2367 19.1195 53.1904 18.3907C54.6192 17.8567 56.2972 18.2899 57.4369 19.4822Z" fill="white"/>
<path d="M85.5505 12.3892L86.2683 34.9745H94.0534L94.7711 12.3892H85.5505Z" fill="white"/>
<path d="M90.1625 9.20192C92.6766 9.20192 94.7147 7.14197 94.7147 4.6009C94.7147 2.05983 92.6766 -0.00012207 90.1625 -0.00012207C87.6484 -0.00012207 85.6104 2.05983 85.6104 4.6009C85.6104 7.14197 87.6484 9.20192 90.1625 9.20192Z" fill="white"/>
<path d="M130.321 10.5822C124.427 9.96093 123.676 13.9104 123.676 13.9104V3.37844C123.556 3.25754 114.754 3.37844 114.754 3.37844V34.9744H123.324V23.1696C123.324 21.2385 124.261 19.6768 125.414 19.6768C126.567 19.6768 127.504 21.2418 127.504 23.1696V34.9744L136.04 34.9878L136.073 18.3872C136.07 18.3906 136.07 11.1868 130.321 10.5822Z" fill="white"/>
<path d="M107.022 20.2947L107.032 20.2846C105.882 18.8371 105.656 17.0673 106.583 16.1235C107.471 15.2168 109.125 15.3746 110.534 16.4056L112.395 11.6703C110.734 10.4814 108.487 9.74927 106.015 9.74927C100.898 9.74927 96.7482 12.8726 96.7482 16.7281C96.7482 18.2326 97.3828 19.6264 98.4594 20.7649H98.4561C98.4561 20.7649 98.466 20.7749 98.4727 20.7817C98.7518 21.0772 101.26 23.3139 101.988 24.0494C103.231 25.3054 103.556 27.1223 102.712 28.1265C101.819 29.1911 99.4529 28.5967 97.8779 27.4044L97.2698 34.0978C98.7185 34.803 102.237 35.2833 104.344 35.1355C109.135 34.7963 112.235 32.4018 112.235 28.5967C112.235 26.6622 111.8 25.7051 109.547 23.1695L107.022 20.2947Z" fill="white"/>
<path d="M76.2369 22.0109C76.2369 22.0109 82.3441 19.21 83.5834 12.4025L75.5291 10.8274C75.5291 10.8274 74.8114 17.0606 71.698 17.0606V3.44226H63.132V34.9744H71.4554V26.7799C71.4554 26.7799 74.1601 26.3399 74.9044 31.8645C75.6487 37.3891 76.6456 40.4822 78.1973 42.1077C81.3173 45.3788 86.0988 45.0295 86.9627 44.9489C87.6206 42.813 88.2785 40.6737 88.9397 38.5377C88.1589 38.5679 86.1852 39.0381 84.5238 37.2078C82.8657 35.3808 82.5999 30.2894 82.4305 29.0603C82.261 27.8311 82.0849 22.0109 76.2369 22.0109Z" fill="white"/>
</svg>
