<svg width="23" height="16" viewBox="0 0 23 16" fill="none" xmlns="http://www.w3.org/2000/svg">
<path fill-rule="evenodd" clip-rule="evenodd" d="M11.5748 0.109741C6.4097 0.109741 1.99868 3.32245 0.211548 7.85744C1.99868 12.3924 6.4097 15.6051 11.5748 15.6051C16.74 15.6051 21.151 12.3924 22.9381 7.85744C21.151 3.32245 16.74 0.109741 11.5748 0.109741ZM11.5749 13.0228C8.72376 13.0228 6.40978 10.7088 6.40978 7.85762C6.40978 5.00647 8.72376 2.69249 11.5749 2.69249C14.4261 2.69249 16.74 5.00647 16.74 7.85762C16.74 10.7088 14.4261 13.0228 11.5749 13.0228ZM8.47577 7.85756C8.47577 6.14274 9.86002 4.75848 11.5748 4.75848C13.2897 4.75848 14.6739 6.14274 14.6739 7.85756C14.6739 9.57238 13.2897 10.9566 11.5748 10.9566C9.86002 10.9566 8.47577 9.57238 8.47577 7.85756Z" fill="black" fill-opacity="0.54"/>
</svg>
