<svg width="209" height="55" viewBox="0 0 209 55" fill="none" xmlns="http://www.w3.org/2000/svg">
<path d="M233.577 3.49988C223.077 5.49988 212.077 4.99988 201.577 3.99988C194.077 2.99988 187.577 3.49988 180.077 5.49988C178.577 5.49988 178.077 2.99988 179.077 2.49988C185.577 -0.00012207 192.577 -0.500122 199.577 0.499878C211.577 1.49988 223.077 2.49988 234.577 -0.00012207C235.577 1.49988 234.577 2.49988 233.577 3.49988Z" fill="#F25153"/>
<path d="M245.078 8.99988C228.078 12.9999 210.078 13.9999 192.578 14.4999C181.078 14.4999 170.078 16.9999 159.078 18.9999C159.578 17.9999 156.578 16.9999 160.078 15.4999C169.078 12.9999 178.078 11.9999 187.078 10.9999C197.078 9.99988 207.078 10.4999 217.078 9.99988C226.578 9.49988 236.078 6.99988 245.578 5.49988C245.578 6.49988 247.078 7.49988 245.078 8.99988Z" fill="#F25153"/>
<path d="M240.078 20.4999C236.578 21.4999 233.578 21.4999 230.078 21.9999C216.578 21.9999 203.078 21.4999 189.578 22.4999C189.078 22.4999 188.578 20.4999 189.578 19.9999C202.578 15.4999 216.578 19.4999 230.078 18.4999C233.578 17.9999 237.578 16.9999 241.078 17.9999C242.078 17.9999 241.578 19.9999 240.078 20.4999Z" fill="#F25153"/>
<path d="M76.0773 35.9998C67.0773 35.9998 58.0773 35.9998 49.5773 33.4998C41.0773 30.4999 32.5773 28.9999 23.0773 30.4999C22.5773 30.4999 21.5773 29.9999 21.5773 28.9999C21.5773 27.9999 22.5773 26.9999 23.5773 26.9999C28.5773 25.9999 33.5773 26.4999 38.5773 26.9999C46.5773 27.9999 54.0773 31.4999 62.0773 32.4998C67.0773 32.9998 71.5773 32.9998 76.5773 32.4998C77.0773 32.4998 78.0773 32.9998 78.0773 33.9998C78.0773 34.9998 78.0773 35.4998 76.0773 35.9998Z" fill="#F25153"/>
<path d="M86.5772 42.9998C70.0772 44.4998 53.5772 42.9998 36.5772 40.9998C24.5772 39.9998 12.5772 40.9998 0.577228 40.4998C0.0772282 40.4998 -0.422772 38.9998 0.577228 38.4998C1.57723 37.4998 3.07723 37.4998 4.07723 37.4998C21.0772 35.9998 37.5772 37.4998 54.5772 39.9998C58.0772 40.4998 61.0772 39.9998 64.5772 40.4998C72.5772 41.4998 80.0772 38.9998 88.0772 39.9998C88.0772 39.9998 88.5772 40.4998 88.5772 40.9998C88.5772 41.9998 88.5772 42.4998 86.5772 42.9998Z" fill="#F25153"/>
<path d="M80.5773 53.9998C74.5773 54.4998 69.0773 53.4998 63.0773 52.9998C59.0773 52.4999 55.0773 51.4999 50.5773 50.4999C43.5773 48.9999 37.0773 49.9999 30.0773 48.4999C29.5773 48.4999 29.5773 47.4999 29.5773 46.9999C30.0773 46.4999 30.5773 45.4999 31.5773 45.4999C35.5773 44.9999 40.0773 45.9999 44.0773 45.9999C53.0773 46.9999 62.0773 49.4999 71.0773 50.4999C74.5773 50.9999 78.5773 49.4999 82.0773 50.9999C82.5773 51.4999 82.0773 52.9998 81.5773 53.4998C81.0773 53.4998 81.0773 53.9998 80.5773 53.9998Z" fill="#F25153"/>
<path d="M158.078 44.9998C164.578 43.9998 171.078 43.9998 178.078 45.4998C190.078 47.4998 201.078 49.4998 212.578 48.9998C213.078 48.9998 213.578 50.4998 212.578 50.9998C206.578 53.4998 200.078 52.4998 194.078 51.9998C187.578 50.9998 181.578 48.9998 175.078 47.9998C169.078 47.4998 163.078 48.4998 157.078 47.9998C157.078 47.9998 156.578 47.4998 156.578 46.9998C156.578 45.9998 156.578 45.4998 158.078 44.9998Z" fill="#F25153"/>
<path d="M147.578 38.4998C169.078 34.4998 191.077 38.9998 212.577 38.4998C219.077 37.9998 225.577 37.4998 232.577 36.4998C233.577 36.4998 234.077 37.4998 234.577 37.9998C234.577 38.4998 234.077 39.4998 234.077 39.4998C218.077 42.4998 203.077 41.9998 187.577 40.4998C175.578 39.4998 164.078 39.9998 152.578 40.9998C151.078 40.9998 149.078 41.9998 147.578 41.9998C146.578 41.9998 146.078 40.9998 145.578 40.4998C145.578 39.4998 145.578 38.9998 147.578 38.4998Z" fill="#F25153"/>
<path d="M153.078 26.9999C165.078 26.4999 176.078 28.4999 188.078 29.9999C193.578 30.4999 199.078 28.9999 204.078 30.9998C204.078 30.9998 204.578 32.4998 203.578 32.9998C199.078 34.4998 194.578 33.4998 190.078 33.4998C183.578 32.9998 177.078 31.9998 170.078 30.9998C164.078 29.9999 158.078 31.9998 152.078 29.9999C151.078 29.4999 151.578 27.4999 153.078 26.9999Z" fill="#F25153"/>
<path d="M134.077 24.9999C122.577 24.9999 111.577 20.9999 100.577 16.9999C97.5774 15.9999 94.5774 15.4999 91.0774 14.9999C87.5774 14.4999 84.0774 14.9999 80.5774 13.9999C80.5774 13.9999 80.0774 13.4999 80.0774 12.9999C80.5774 10.9999 83.0774 10.9999 85.0774 10.9999C95.5774 11.9999 105.577 14.9999 115.577 18.9999C118.577 19.9999 121.577 20.4999 125.077 20.9999C128.577 21.4999 132.077 20.4999 135.577 21.9999C137.077 22.9999 135.077 24.4999 134.077 24.9999Z" fill="#F25153"/>
<path d="M143.577 32.9998C137.077 32.9998 130.077 32.4998 123.577 31.9998C111.077 30.4998 99.0774 26.9998 86.5774 24.9998C81.5774 24.4998 76.5774 23.9998 71.5774 23.4998C67.0774 22.9998 62.5774 24.4998 58.0774 22.9998C57.5774 22.4998 57.0774 20.9998 58.0774 20.4998C64.5774 18.4999 70.5774 20.4998 77.0774 20.4998C86.5774 21.4998 95.5774 22.4998 104.577 24.9998C118.077 28.4998 131.577 28.4998 145.077 29.9998C145.077 29.9998 145.577 30.4998 145.577 30.9998C145.577 31.9998 145.577 32.4998 143.577 32.9998Z" fill="#F25153"/>
<path d="M136.577 43.4998C130.077 42.9998 123.077 41.4998 116.577 39.9998C106.577 36.9998 97.0774 34.9998 86.5774 32.9998C86.5774 32.9998 86.0774 31.4998 87.0774 30.9999C91.0774 28.9999 94.5774 31.4998 98.5774 31.9998C111.077 33.4998 122.077 38.4998 134.577 39.4998C136.077 39.9998 138.077 38.9998 138.077 41.4998C138.077 41.9998 137.577 43.4998 136.577 43.4998Z" fill="#F25153"/>
</svg>
