<svg width="22" height="30" viewBox="0 0 22 30" fill="none" xmlns="http://www.w3.org/2000/svg">
<path fill-rule="evenodd" clip-rule="evenodd" d="M10.25 28.9063C10.25 28.9063 20 17.6348 20 12.2501C20 6.86528 15.6348 2.50006 10.25 2.50006C4.86522 2.50006 0.5 6.86528 0.5 12.2501C0.5 17.6348 10.25 28.9063 10.25 28.9063ZM10.4532 18.3437C13.9309 18.3437 16.7501 15.5245 16.7501 12.0469C16.7501 8.5692 13.9309 5.74999 10.4532 5.74999C6.97552 5.74999 4.15631 8.5692 4.15631 12.0469C4.15631 15.5245 6.97552 18.3437 10.4532 18.3437Z" fill="#12E068"/>
<path d="M19.5699 4.92317L19.9925 4.33057L19.4128 3.89042L17.4536 2.40266L16.8355 1.93336L16.3876 2.56704L10.3842 11.0594L8.48872 9.43107L7.90245 8.92745L7.41667 9.52857L5.66667 11.6941L5.20738 12.2624L5.76356 12.7363L10.2636 16.5708L10.8859 17.1011L11.3606 16.4354L19.5699 4.92317Z" fill="black" stroke="white" stroke-width="1.5"/>
</svg>
