<svg width="375" height="201" viewBox="0 0 375 201" fill="none" xmlns="http://www.w3.org/2000/svg">
<path d="M192.791 200.248C162.112 198.862 143.615 183.271 118.801 177.034C93.5363 170.797 8.71871 181.538 -7.97412 171.663C-24.2158 162.308 -9.32761 139.787 -16.095 128.18C-22.4112 117.266 -39.104 101.154 -35.4947 89.374C-31.8854 77.4204 -14.761 53.8031 -2.1286 43.7551C11.4061 33.0142 55.188 34.1101 76.8435 26.4875C99.4014 18.5184 140.006 22.1565 168.428 18.3452C196.4 14.5339 218.507 16.4396 249.637 17.8255C280.316 19.2114 344.38 -5.21556 369.645 1.02111C394.91 7.25779 376.412 28.5842 393.556 38.2857C409.798 47.6407 441.379 63.9076 448.146 75.5147C454.462 86.4289 423.784 97.4341 420.174 109.388C416.565 121.341 433.258 135.283 420.174 145.331C406.64 156.072 415.212 177.727 393.556 185.523C370.998 193.492 319.566 193.838 291.595 197.65C262.72 201.288 223.47 201.634 192.791 200.248Z" fill="white"/>
</svg>
