<svg width="18" height="12" viewBox="0 0 18 12" fill="none" xmlns="http://www.w3.org/2000/svg">
<path fill-rule="evenodd" clip-rule="evenodd" d="M16.8407 0.578735H15.8194C15.2554 0.578735 14.7981 1.02884 14.7981 1.58407V10.297C14.7981 10.8522 15.2554 11.3023 15.8194 11.3023H16.8407C17.4048 11.3023 17.862 10.8522 17.862 10.297V1.58407C17.862 1.02884 17.4048 0.578735 16.8407 0.578735ZM11.0534 2.92456H12.0747C12.6388 2.92456 13.096 3.37467 13.096 3.9299V10.297C13.096 10.8523 12.6388 11.3024 12.0747 11.3024H11.0534C10.4894 11.3024 10.0321 10.8523 10.0321 10.297V3.9299C10.0321 3.37467 10.4894 2.92456 11.0534 2.92456ZM7.30862 5.27039H6.28732C5.72327 5.27039 5.26602 5.72049 5.26602 6.27572V10.2971C5.26602 10.8523 5.72327 11.3024 6.28732 11.3024H7.30862C7.87267 11.3024 8.32993 10.8523 8.32993 10.2971V6.27572C8.32993 5.72049 7.87267 5.27039 7.30862 5.27039ZM2.5426 7.28101H1.5213C0.957252 7.28101 0.5 7.73111 0.5 8.28635V10.297C0.5 10.8523 0.957252 11.3024 1.5213 11.3024H2.5426C3.10665 11.3024 3.5639 10.8523 3.5639 10.297V8.28635C3.5639 7.73111 3.10665 7.28101 2.5426 7.28101Z" fill="#131315"/>
</svg>
