<svg width="17" height="12" viewBox="0 0 17 12" fill="none" xmlns="http://www.w3.org/2000/svg">
<path fill-rule="evenodd" clip-rule="evenodd" d="M8.75212 2.38832C11.1033 2.38842 13.3645 3.28135 15.0685 4.88256C15.1968 5.00618 15.4019 5.00462 15.5282 4.87907L16.7548 3.65554C16.8188 3.59186 16.8545 3.5056 16.8539 3.41585C16.8534 3.3261 16.8167 3.24026 16.752 3.17732C12.2796 -1.05911 5.22393 -1.05911 0.751563 3.17732C0.686777 3.24021 0.650019 3.32602 0.649421 3.41578C0.648824 3.50553 0.684437 3.59181 0.748379 3.65554L1.97529 4.87907C2.10158 5.00481 2.30684 5.00637 2.43507 4.88256C4.13926 3.28125 6.40075 2.38831 8.75212 2.38832ZM8.75223 6.36878C10.044 6.36871 11.2897 6.84329 12.2473 7.70033C12.3768 7.82196 12.5808 7.81933 12.7071 7.69439L13.9322 6.47086C13.9967 6.40668 14.0325 6.31962 14.0316 6.22915C14.0307 6.13868 13.9931 6.05236 13.9273 5.98949C11.0113 3.30852 6.49561 3.30852 3.57967 5.98949C3.5138 6.05236 3.47622 6.13873 3.47536 6.22922C3.47449 6.31972 3.51042 6.40678 3.57507 6.47086L4.79986 7.69439C4.92611 7.81933 5.13013 7.82196 5.25964 7.70033C6.21656 6.84386 7.46128 6.36931 8.75223 6.36878ZM11.2064 9.04718C11.2083 9.13791 11.1722 9.22537 11.1067 9.28893L8.98747 11.4028C8.92535 11.465 8.84065 11.4999 8.75227 11.4999C8.6639 11.4999 8.5792 11.465 8.51708 11.4028L6.39748 9.28893C6.33201 9.22532 6.29598 9.13783 6.29793 9.04711C6.29987 8.95638 6.3396 8.87047 6.40774 8.80966C7.76117 7.67819 9.74338 7.67819 11.0968 8.80966C11.1649 8.87052 11.2046 8.95646 11.2064 9.04718Z" fill="#131315"/>
</svg>
